<?xml version="1.0"?>
<svg version="1.1" xmlns="http://www.w3.org/2000/svg" width="400px" height="200px" style="border: dashed 2px #aaa"><path fill="#ffffff" d="M64,109.464c0,3.892-3.164,5.992-6.804,5.992c-1.68,0-3.668-0.308-5.348-0.896c-0.364-0.14-0.476-0.308-0.476-0.532c0-0.112,0-0.224,0.056-0.364l0.588-1.82c0.084-0.28,0.224-0.448,0.504-0.448c0.112,0,0.252,0.028,0.42,0.084c1.316,0.476,2.772,0.84,4.172,0.84c1.512,0,3.22-0.728,3.22-2.492c0-1.288-0.952-1.988-2.044-2.52l-3.64-1.82c-1.988-0.98-3.304-2.632-3.304-4.816c0-3.416,3.36-5.292,6.468-5.292c1.848,0,3.388,0.28,5.012,0.98c0.364,0.168,0.56,0.336,0.56,0.56c0,0.112-0.028,0.224-0.084,0.364l-0.672,1.708c-0.112,0.308-0.28,0.42-0.476,0.42c-0.14,0-0.28-0.056-0.448-0.112c-1.148-0.476-2.576-0.868-3.696-0.868c-1.316,0-2.828,0.56-2.828,2.128c0,1.148,1.064,1.82,1.988,2.268l3.108,1.512c2.212,1.064,3.724,2.548,3.724,5.124z M77.006,114.28c0,0.28-0.14,0.42-0.42,0.532c-0.868,0.364-2.016,0.644-3.136,0.644c-1.428,0-2.66-0.364-3.36-1.176c-0.868-0.98-0.896-2.128-0.896-4.172l0-6.244l-1.316,0c-0.532,0-0.616-0.112-0.616-0.7l0-1.064c0-0.336,0.168-0.56,0.504-0.56l1.428,0l0-3.052c0-0.476,0.252-0.616,0.7-0.672l2.016-0.252l0.14,0c0.364,0,0.532,0.196,0.532,0.616l0,3.36l3.164,0c0.336,0,0.532,0.112,0.532,0.476l0,1.316c0,0.336-0.224,0.532-0.56,0.532l-3.136,0l0,6.412c0,0.84,0.056,1.456,0.364,1.904c0.252,0.364,0.644,0.588,1.316,0.588c0.7,0,1.288-0.168,1.792-0.336c0.112-0.028,0.196-0.056,0.28-0.056c0.196,0,0.308,0.112,0.364,0.336l0.28,1.4c0.028,0.084,0.028,0.112,0.028,0.168z M94.044,114.588c0,0.336-0.224,0.532-0.56,0.532l-1.344,0c-1.456,0-2.1-0.7-2.296-1.652l-0.056,0c-0.7,1.036-2.52,1.988-4.06,1.988c-3.948,0-5.74-3.248-5.74-6.888c0-4.844,2.912-7.392,6.048-7.392c1.484,0,2.884,0.672,3.584,1.624l0.056-0.756c0.028-0.308,0.252-0.504,0.588-0.504l1.96,0c0.364,0,0.588,0.196,0.588,0.616l0,9.716c0,0.392,0.056,0.672,0.168,0.812c0.084,0.084,0.196,0.112,0.336,0.112l0.224,0c0.336,0,0.504,0.112,0.504,0.476l0,1.316z M89.424,110.78l0-5.404c-0.56-0.812-1.708-1.428-2.772-1.428c-1.708,0-3.164,1.456-3.164,4.396c0,2.352,0.896,4.34,2.968,4.34c1.372,0,2.548-1.036,2.968-1.904z M105.818,101.652c0,0.084,0,0.168-0.028,0.252l-0.308,1.988c-0.028,0.252-0.168,0.364-0.392,0.364l-0.112,0c-0.224-0.056-0.504-0.084-0.756-0.084c-0.952,0-1.988,0.504-2.688,1.344l0,8.904c0,0.448-0.196,0.7-0.672,0.7l-2.044,0c-0.448,0-0.672-0.224-0.672-0.7l0-8.736l0-3.444c0-0.56,0.28-0.7,0.7-0.7l1.792,0c0.448,0,0.7,0.14,0.7,0.532l0.028,0.896c0.868-1.092,1.82-1.792,3.388-1.792c0.224,0,0.532,0.056,0.784,0.112c0.196,0.056,0.28,0.14,0.28,0.364z M119.076,114.28c0,0.644-0.252,0.84-0.868,0.84l-1.82,0c-0.728,0-0.896-0.14-0.896-0.812l0-14.616l-3.892,2.212c-0.168,0.112-0.336,0.168-0.476,0.168c-0.252,0-0.448-0.196-0.588-0.476l-0.644-1.26c-0.084-0.14-0.112-0.252-0.112-0.364c0-0.252,0.112-0.42,0.448-0.616l5.544-3.304c0.42-0.252,0.7-0.308,1.26-0.308l1.344,0c0.448,0,0.7,0.196,0.7,0.7l0,17.836z M138.83,114.756c0,0.196-0.168,0.364-0.476,0.364l-2.8,0c-0.56,0-0.784-0.168-0.98-0.504l-2.632-4.284l-0.028,0l-2.688,4.228c-0.252,0.392-0.532,0.56-1.064,0.56l-2.436,0c-0.224,0-0.308-0.14-0.308-0.336c0-0.112,0.056-0.252,0.14-0.364l4.76-6.328l-4.144-5.936c-0.056-0.084-0.084-0.168-0.084-0.252c0-0.196,0.14-0.364,0.392-0.364l2.856,0c0.42,0,0.7,0.168,0.868,0.448l2.212,3.528l0.028,0l2.296-3.5c0.224-0.336,0.448-0.476,0.812-0.476l2.492,0c0.252,0,0.364,0.14,0.364,0.308c0,0.112-0.028,0.196-0.112,0.28l-4.284,5.572l4.676,6.664c0.084,0.14,0.14,0.28,0.14,0.392z M159.032,105.516c0,3.36-1.148,5.88-3.052,7.504c-1.736,1.456-4.172,2.1-6.944,2.1l-5.348,0c-0.56,0-0.812-0.14-0.812-0.784l0-17.752c0-0.588,0.168-0.84,0.868-0.84l4.032,0c3.22,0,5.404,0.364,7.252,1.428c2.52,1.456,4.004,4.2,4.004,8.344z M155.168,105.488c0-2.548-0.756-4.48-2.184-5.544c-1.148-0.84-2.632-1.148-4.424-1.148l-2.044,0l0,13.3l2.156,0c1.932,0,3.556-0.308,4.732-1.484c1.12-1.12,1.764-2.8,1.764-5.124z M175.538,108.288c0,0.672-0.224,0.812-0.924,0.812l-8.204,0c0.224,2.156,1.792,3.64,4.004,3.64c1.176,0,2.408-0.28,3.444-0.672c0.112-0.028,0.196-0.084,0.308-0.084c0.196,0,0.336,0.112,0.392,0.336l0.392,1.428c0.028,0.14,0.056,0.252,0.056,0.336c0,0.196-0.112,0.336-0.448,0.476c-1.372,0.616-3.248,0.896-4.704,0.896c-4.396,0-7-2.8-7-7.168c0-4.2,2.772-7.112,6.944-7.112c1.708,0,3.108,0.644,4.088,1.68c1.288,1.344,1.652,3.108,1.652,5.012l0,0.42z M172.206,106.888l0-0.308c-0.056-1.456-0.896-2.8-2.604-2.8c-1.82,0-2.912,1.456-3.136,3.108l5.74,0z M191.232,101.932c0,0.084-0.028,0.168-0.056,0.28l-4.9,12.376c-0.168,0.42-0.392,0.532-0.812,0.532l-1.456,0c-0.42,0-0.7-0.112-0.84-0.504l-4.816-12.488c-0.028-0.084-0.056-0.168-0.056-0.252c0-0.224,0.14-0.336,0.504-0.336l2.464,0c0.476,0,0.7,0.196,0.812,0.56l2.128,6.524c0.28,0.84,0.532,1.764,0.7,2.38l0.028,0c0.14-0.532,0.42-1.512,0.672-2.296l2.184-6.58c0.14-0.476,0.364-0.588,0.868-0.588l2.016,0c0.364,0,0.56,0.14,0.56,0.392z"/><path fill="#ffffff" d=""/></svg>
